<?xml version="1.0" encoding="UTF-8" standalone="no"?><svg xmlns:svg="http://www.w3.org/2000/svg" xmlns="http://www.w3.org/2000/svg" version="1.0" width="154" height="44" id="1"><defs id="2" /><g id="3"><g transform="matrix(1.2499733,0,0,1.2499733,-82.711997,-158.40781)" id="4"><path d="M 105.81233,153.62017 L 111.39233,153.62017 C 117.15233,153.62017 121.11233,149.12017 121.11233,143.54017 C 121.11233,137.78017 117.15233,133.46017 111.39233,133.46017 L 105.81233,133.46017 L 105.81233,153.62017 z M 109.59233,136.88017 L 110.31233,136.88017 C 114.81233,136.88017 116.97233,139.04017 116.97233,143.54017 C 116.97233,147.50017 115.17233,150.20017 110.31233,150.20017 L 109.59233,150.20017 L 109.59233,136.88017 z" style="fill:#008b4d;fill-rule:evenodd;stroke:none;stroke-width:1.98000002;stroke-linecap:butt;stroke-linejoin:bevel" id="5" /><polygon points="492.48,128.88 492.48,125.46 482.04,125.46 482.04,145.62 492.48,145.62 492.48,142.2 486,142.2 486,136.62 492.3,136.62 492.3,133.2 486,133.2 486,128.88 492.48,128.88" transform="translate(-358.40767,8.0001725)" style="fill:#008b4d;fill-rule:nonzero;stroke:none;stroke-width:1.98000002;stroke-linecap:butt;stroke-linejoin:bevel" id="6" /><path d="M 168.63233,153.62017 L 176.19233,134.18017 C 176.37233,133.28017 177.27233,132.92017 177.99233,132.92017 C 178.71233,132.92017 179.61233,133.28017 179.79233,134.18017 L 187.17233,153.62017 L 183.03233,153.62017 L 181.41233,149.30017 L 174.39233,149.30017 L 172.77233,153.62017 L 168.63233,153.62017 z M 175.47233,146.06017 L 177.99233,138.86017 L 177.99233,138.86017 L 180.33233,146.06017 L 175.47233,146.06017 z" style="fill:#008b4d;fill-rule:evenodd;stroke:none;stroke-width:1.98000002;stroke-linecap:butt;stroke-linejoin:bevel" id="7" /><polygon points="499.86,133.92 499.86,133.92 499.86,125.46 495.9,125.46 495.9,145.62 499.86,145.62 499.86,136.44 499.86,136.44 506.34,145.62 511.38,145.62 503.28,134.64 511.02,125.46 506.16,125.46 499.86,133.92" transform="translate(-358.40767,8.0001725)" style="fill:#008b4d;fill-rule:nonzero;stroke:none;stroke-width:1.98000002;stroke-linecap:butt;stroke-linejoin:bevel" id="8" /><path d="M 160.89233,136.70017 L 158.91233,136.70017 L 158.91233,142.64017 L 160.89233,142.64017 C 162.51233,142.64017 163.77233,141.38017 163.77233,139.58017 C 163.77233,137.96017 162.51233,136.70017 160.89233,136.70017 z M 163.05233,145.34017 L 168.63233,153.62017 L 163.77233,153.62017 L 158.91233,145.52017 L 158.91233,153.62017 L 154.95233,153.62017 L 154.95233,133.46017 L 161.61233,133.46017 C 165.03233,133.46017 167.73233,136.16017 167.73233,139.40017 C 167.73233,142.28017 165.75233,144.80017 163.05233,145.34017 z" style="fill:#008b4d;fill-rule:nonzero;stroke:none;stroke-width:1.98000002;stroke-linecap:butt;stroke-linejoin:bevel" id="9" /><path d="M 74.67233,128.24017 L 91.77233,138.14017 C 93.03233,138.86017 94.47233,140.48017 94.47233,142.64017 C 94.47233,144.98017 93.03233,146.42017 91.77233,147.32017 L 68.37233,160.82017 L 68.37233,154.70017 L 89.25233,142.64017 L 78.09233,136.16017 L 78.09233,145.34017 L 72.69233,148.40017 L 72.69233,129.32017 C 72.69233,128.96017 73.05233,128.42017 73.41233,128.24017 C 73.77233,128.06017 74.31233,128.06017 74.67233,128.24017 z" style="fill:#008b4d;fill-rule:nonzero;stroke:none;stroke-width:1.98000002;stroke-linecap:butt;stroke-linejoin:bevel" id="10" /></g></g></svg>
